<svg width="247" height="58" viewBox="0 0 247 58" fill="none" xmlns="http://www.w3.org/2000/svg">
<path d="M78.416 42C77.696 42 76.984 41.792 76.28 41.376C75.592 40.976 74.712 40.352 73.64 39.504C72.84 38.864 72.152 38.344 71.576 37.944C71.016 37.56 70.4 37.232 69.728 36.96C69.072 36.688 68.4 36.552 67.712 36.552C67.472 36.552 67.288 36.56 67.16 36.576L70.736 19.944C69.664 20.376 68.832 21.04 68.24 21.936C67.664 22.816 67.376 23.896 67.376 25.176C67.376 25.768 67.432 26.184 67.544 26.424C67.656 26.648 67.712 26.776 67.712 26.808C66.848 26.808 66.2 26.632 65.768 26.28C65.352 25.912 65.144 25.312 65.144 24.48C65.144 23.456 65.56 22.464 66.392 21.504C67.24 20.528 68.32 19.744 69.632 19.152C70.944 18.544 72.256 18.24 73.568 18.24C73.792 18.24 74.112 18.256 74.528 18.288L70.832 35.52C71.28 35.632 71.736 35.792 72.2 36C72.68 36.224 73.256 36.52 73.928 36.888C74.968 37.448 75.856 37.872 76.592 38.16C77.328 38.464 78.096 38.616 78.896 38.616C79.616 38.616 80.288 38.488 80.912 38.232C80.784 39.4 80.496 40.32 80.048 40.992C79.616 41.664 79.072 42 78.416 42ZM78.6778 36.432C77.2218 36.432 76.1178 36.032 75.3658 35.232C74.6298 34.432 74.2618 33.424 74.2618 32.208C74.2618 31.344 74.4378 30.48 74.7898 29.616C75.1578 28.736 75.6778 27.968 76.3498 27.312C77.0218 26.656 77.8058 26.216 78.7018 25.992C78.2058 25.64 77.8378 25.216 77.5978 24.72C77.3578 24.208 77.2378 23.672 77.2378 23.112C77.2378 22.28 77.4618 21.464 77.9098 20.664C78.3738 19.864 79.0058 19.216 79.8058 18.72C80.6218 18.208 81.5178 17.952 82.4938 17.952C83.5018 17.952 84.3258 18.216 84.9658 18.744C85.6058 19.272 85.9258 20.008 85.9258 20.952C85.9258 21.656 85.7498 22.248 85.3978 22.728C85.0458 23.208 84.6298 23.448 84.1498 23.448C83.7178 23.448 83.3418 23.232 83.0218 22.8C83.3098 22.704 83.5578 22.44 83.7658 22.008C83.9738 21.576 84.0778 21.144 84.0778 20.712C84.0778 20.248 83.9498 19.912 83.6938 19.704C83.4378 19.48 83.1258 19.368 82.7578 19.368C82.2938 19.368 81.8698 19.536 81.4858 19.872C81.1178 20.192 80.8298 20.616 80.6218 21.144C80.4138 21.656 80.3098 22.192 80.3098 22.752C80.3098 23.52 80.5098 24.2 80.9098 24.792C81.3098 25.368 81.9178 25.76 82.7338 25.968C81.9178 26.144 81.1818 26.544 80.5258 27.168C79.8698 27.792 79.3578 28.52 78.9898 29.352C78.6218 30.168 78.4378 30.952 78.4378 31.704C78.4378 32.424 78.6218 33.008 78.9898 33.456C79.3738 33.904 79.9498 34.128 80.7178 34.128C81.5178 34.128 82.3498 33.912 83.2138 33.48C84.0938 33.032 84.7418 32.432 85.1578 31.68L85.7098 31.92C85.0858 33.296 84.1258 34.392 82.8298 35.208C81.5338 36.024 80.1498 36.432 78.6778 36.432ZM90.9894 36.432C89.9814 36.432 89.0934 36.256 88.3254 35.904C87.5574 35.552 86.9654 35.064 86.5494 34.44C86.1334 33.8 85.9254 33.064 85.9254 32.232C85.9254 31.528 86.0694 30.888 86.3574 30.312C86.6614 29.736 87.0614 29.28 87.5574 28.944C88.0694 28.608 88.6294 28.44 89.2374 28.44C89.7974 28.44 90.2694 28.584 90.6534 28.872C91.0374 29.144 91.2774 29.528 91.3734 30.024C90.5414 30.024 89.8774 30.248 89.3814 30.696C88.8854 31.128 88.6374 31.72 88.6374 32.472C88.6374 33.16 88.8454 33.712 89.2614 34.128C89.6774 34.544 90.2294 34.752 90.9174 34.752C91.7654 34.752 92.4614 34.472 93.0054 33.912C93.5654 33.336 93.8454 32.616 93.8454 31.752C93.8454 31 93.6374 30.288 93.2214 29.616C92.8054 28.944 92.1814 28.128 91.3494 27.168C90.4854 26.176 89.8294 25.328 89.3814 24.624C88.9494 23.904 88.7334 23.12 88.7334 22.272C88.7334 21.44 88.9654 20.696 89.4294 20.04C89.8934 19.368 90.5334 18.84 91.3494 18.456C92.1654 18.072 93.0854 17.88 94.1094 17.88C95.4054 17.88 96.4374 18.184 97.2054 18.792C97.9894 19.4 98.3814 20.216 98.3814 21.24C98.3814 21.912 98.2134 22.456 97.8774 22.872C97.5414 23.288 97.1014 23.496 96.5574 23.496C95.9494 23.496 95.4614 23.248 95.0934 22.752C95.3974 22.528 95.6374 22.232 95.8134 21.864C95.9894 21.496 96.0774 21.112 96.0774 20.712C96.0774 20.2 95.9254 19.792 95.6214 19.488C95.3174 19.184 94.9014 19.032 94.3734 19.032C93.7334 19.032 93.2054 19.264 92.7894 19.728C92.3894 20.176 92.1894 20.752 92.1894 21.456C92.1894 22.096 92.3734 22.696 92.7414 23.256C93.1094 23.8 93.6854 24.504 94.4694 25.368C95.1094 26.056 95.6214 26.648 96.0054 27.144C96.4054 27.64 96.7414 28.216 97.0134 28.872C97.3014 29.512 97.4454 30.208 97.4454 30.96C97.4454 31.984 97.1574 32.912 96.5814 33.744C96.0214 34.576 95.2454 35.232 94.2534 35.712C93.2774 36.192 92.1894 36.432 90.9894 36.432ZM104.677 36.432C103.669 36.432 102.781 36.256 102.013 35.904C101.245 35.552 100.653 35.064 100.237 34.44C99.8209 33.8 99.6129 33.064 99.6129 32.232C99.6129 31.528 99.7569 30.888 100.045 30.312C100.349 29.736 100.749 29.28 101.245 28.944C101.757 28.608 102.317 28.44 102.925 28.44C103.485 28.44 103.957 28.584 104.341 28.872C104.725 29.144 104.965 29.528 105.061 30.024C104.229 30.024 103.565 30.248 103.069 30.696C102.573 31.128 102.325 31.72 102.325 32.472C102.325 33.16 102.533 33.712 102.949 34.128C103.365 34.544 103.917 34.752 104.605 34.752C105.453 34.752 106.149 34.472 106.693 33.912C107.253 33.336 107.533 32.616 107.533 31.752C107.533 31 107.325 30.288 106.909 29.616C106.493 28.944 105.869 28.128 105.037 27.168C104.173 26.176 103.517 25.328 103.069 24.624C102.637 23.904 102.421 23.12 102.421 22.272C102.421 21.44 102.653 20.696 103.117 20.04C103.581 19.368 104.221 18.84 105.037 18.456C105.853 18.072 106.773 17.88 107.797 17.88C109.093 17.88 110.125 18.184 110.893 18.792C111.677 19.4 112.069 20.216 112.069 21.24C112.069 21.912 111.901 22.456 111.565 22.872C111.229 23.288 110.789 23.496 110.245 23.496C109.637 23.496 109.149 23.248 108.781 22.752C109.085 22.528 109.325 22.232 109.501 21.864C109.677 21.496 109.765 21.112 109.765 20.712C109.765 20.2 109.613 19.792 109.309 19.488C109.005 19.184 108.589 19.032 108.061 19.032C107.421 19.032 106.893 19.264 106.477 19.728C106.077 20.176 105.877 20.752 105.877 21.456C105.877 22.096 106.061 22.696 106.429 23.256C106.797 23.8 107.373 24.504 108.157 25.368C108.797 26.056 109.309 26.648 109.693 27.144C110.093 27.64 110.429 28.216 110.701 28.872C110.989 29.512 111.133 30.208 111.133 30.96C111.133 31.984 110.845 32.912 110.269 33.744C109.709 34.576 108.933 35.232 107.941 35.712C106.965 36.192 105.877 36.432 104.677 36.432ZM119.372 36.144C118.028 36.144 116.972 35.76 116.204 34.992C115.452 34.224 115.076 33 115.076 31.32C115.076 29.896 115.332 28.296 115.844 26.52C116.356 24.744 117.1 23.224 118.076 21.96C119.068 20.696 120.236 20.064 121.58 20.064C122.06 20.064 122.476 20.128 122.828 20.256C122.124 20.672 121.444 21.528 120.788 22.824C120.148 24.12 119.628 25.568 119.228 27.168C118.828 28.768 118.628 30.184 118.628 31.416C118.628 32.28 118.74 32.96 118.964 33.456C119.188 33.952 119.54 34.2 120.02 34.2C120.804 34.2 121.58 33.64 122.348 32.52C123.132 31.384 123.772 29.96 124.268 28.248C124.78 26.536 125.036 24.888 125.036 23.304C125.036 22.312 124.948 21.52 124.772 20.928C124.612 20.32 124.308 19.864 123.86 19.56C123.412 19.256 122.78 19.104 121.964 19.104C120.732 19.104 119.588 19.36 118.532 19.872C117.476 20.368 116.628 21.088 115.988 22.032C115.364 22.96 115.052 24.04 115.052 25.272C115.052 25.704 115.092 26.024 115.172 26.232C115.252 26.424 115.292 26.536 115.292 26.568C114.492 26.568 113.884 26.408 113.468 26.088C113.068 25.768 112.868 25.256 112.868 24.552C112.868 23.448 113.316 22.392 114.212 21.384C115.124 20.376 116.324 19.56 117.812 18.936C119.316 18.312 120.892 18 122.54 18C124.54 18 125.988 18.544 126.884 19.632C127.78 20.72 128.228 22.224 128.228 24.144C128.228 25.856 127.908 27.64 127.268 29.496C126.628 31.352 125.636 32.928 124.292 34.224C122.964 35.504 121.324 36.144 119.372 36.144ZM134.277 19.56C133.189 19.944 132.357 20.552 131.781 21.384C131.221 22.2 130.941 23.192 130.941 24.36C130.941 24.872 130.997 25.344 131.109 25.776C131.221 26.192 131.381 26.536 131.589 26.808C130.565 26.808 129.805 26.6 129.309 26.184C128.829 25.752 128.589 25.096 128.589 24.216C128.589 23.096 128.917 22.056 129.573 21.096C130.229 20.12 131.117 19.344 132.237 18.768C133.357 18.192 134.573 17.904 135.885 17.904C136.253 17.904 136.573 17.928 136.845 17.976C137.117 18.024 137.429 18.112 137.781 18.24L140.661 31.08L143.349 18.048H145.677L141.765 36H138.453L135.669 24.096L132.933 36H130.653L134.277 19.56ZM155.392 36.384C153.584 36.384 152.256 35.928 151.408 35.016C150.56 34.104 150.136 32.592 150.136 30.48C150.136 28.8 150.416 26.992 150.976 25.056C151.552 23.12 152.464 21.464 153.712 20.088C154.976 18.696 156.576 18 158.512 18C159.712 18 160.68 18.264 161.416 18.792C162.152 19.32 162.52 20.128 162.52 21.216C162.52 21.904 162.384 22.448 162.112 22.848C161.84 23.232 161.416 23.424 160.84 23.424C160.264 23.424 159.808 23.216 159.472 22.8C159.76 22.656 160.016 22.368 160.24 21.936C160.464 21.504 160.576 21.056 160.576 20.592C160.576 20.16 160.456 19.808 160.216 19.536C159.992 19.264 159.624 19.128 159.112 19.128C158.264 19.128 157.456 19.712 156.688 20.88C155.92 22.032 155.296 23.488 154.816 25.248C154.352 27.008 154.12 28.704 154.12 30.336C154.12 31.552 154.328 32.48 154.744 33.12C155.16 33.76 155.912 34.08 157 34.08C157.944 34.08 158.816 33.872 159.616 33.456C160.416 33.04 161.104 32.448 161.68 31.68L162.232 31.92C161.832 32.928 161.24 33.768 160.456 34.44C159.672 35.112 158.832 35.608 157.936 35.928C157.04 36.232 156.192 36.384 155.392 36.384ZM166.841 38.736C166.249 38.736 165.729 38.688 165.281 38.592C164.833 38.496 164.441 38.264 164.105 37.896C163.785 37.528 163.625 36.96 163.625 36.192C163.625 35.12 163.945 33.68 164.585 31.872C165.241 30.064 166.097 28.248 167.153 26.424C166.353 26.472 165.721 26.592 165.257 26.784C164.793 26.976 164.489 27.272 164.345 27.672C164.409 27.672 164.473 27.752 164.537 27.912C164.617 28.072 164.657 28.24 164.657 28.416C164.657 28.704 164.529 28.936 164.273 29.112C164.017 29.272 163.697 29.352 163.313 29.352C162.865 29.352 162.505 29.232 162.233 28.992C161.961 28.752 161.825 28.408 161.825 27.96C161.825 27.416 162.033 26.92 162.449 26.472C162.881 26.024 163.473 25.672 164.225 25.416C164.977 25.144 165.809 25.008 166.721 25.008C167.057 25.008 167.473 25.032 167.969 25.08C169.281 23 170.665 21.304 172.121 19.992C173.593 18.664 174.993 18 176.321 18C177.089 18 177.721 18.112 178.217 18.336L174.449 36H170.993L172.841 27.288C172.249 27.016 171.705 26.816 171.209 26.688C170.713 26.56 170.185 26.472 169.625 26.424C168.713 28.392 167.961 30.408 167.369 32.472C166.793 34.52 166.505 36.16 166.505 37.392C166.505 38 166.617 38.448 166.841 38.736ZM174.449 19.704C173.761 20.072 173.041 20.76 172.289 21.768C171.553 22.76 170.833 23.968 170.129 25.392C171.281 25.616 172.257 25.896 173.057 26.232L174.449 19.704ZM183.161 20.736L186.713 20.256L185.009 28.272C185.777 28.208 186.481 27.872 187.121 27.264C187.777 26.656 188.289 25.904 188.657 25.008C189.025 24.112 189.209 23.232 189.209 22.368C189.209 21.408 188.961 20.624 188.465 20.016C187.969 19.408 187.225 19.104 186.233 19.104C184.281 19.104 182.753 19.616 181.649 20.64C180.561 21.664 180.017 23.096 180.017 24.936C180.017 25.528 180.073 25.944 180.185 26.184C180.297 26.408 180.353 26.536 180.353 26.568C179.489 26.568 178.841 26.392 178.409 26.04C177.993 25.672 177.785 25.072 177.785 24.24C177.785 23.216 178.201 22.224 179.033 21.264C179.881 20.288 180.961 19.504 182.273 18.912C183.585 18.304 184.897 18 186.209 18C187.473 18 188.529 18.216 189.377 18.648C190.225 19.08 190.849 19.656 191.249 20.376C191.665 21.08 191.873 21.864 191.873 22.728C191.873 23.768 191.585 24.784 191.009 25.776C190.449 26.768 189.641 27.584 188.585 28.224C187.529 28.848 186.313 29.16 184.937 29.16H184.817L183.353 36H179.897L183.161 20.736ZM198.574 20.112H198.286C196.862 20.112 195.75 20.472 194.95 21.192C194.166 21.896 193.774 23.152 193.774 24.96C193.774 25.552 193.83 25.968 193.942 26.208C194.054 26.432 194.11 26.56 194.11 26.592C193.246 26.592 192.598 26.416 192.166 26.064C191.75 25.696 191.542 25.096 191.542 24.264C191.542 23.128 191.822 22.096 192.382 21.168C192.942 20.224 193.83 19.464 195.046 18.888C196.278 18.312 197.838 18.024 199.726 18.024C200.782 18.024 201.918 18.12 203.134 18.312C204.158 18.488 205.07 18.576 205.87 18.576C206.894 18.576 207.822 18.408 208.654 18.072C208.622 19.112 208.358 19.88 207.862 20.376C207.366 20.872 206.63 21.12 205.654 21.12C205.142 21.12 204.63 21.08 204.118 21C203.606 20.92 202.878 20.784 201.934 20.592L198.622 36H195.166L198.574 20.112ZM211.473 36.168C209.889 36.168 208.689 35.784 207.873 35.016C207.073 34.232 206.673 33.08 206.673 31.56C206.673 30.808 206.785 29.968 207.009 29.04L209.457 19.296C208.081 19.664 207.009 20.32 206.241 21.264C205.473 22.192 205.089 23.216 205.089 24.336C205.089 25.12 205.297 25.88 205.713 26.616C204.801 26.616 204.089 26.392 203.577 25.944C203.081 25.496 202.833 24.864 202.833 24.048C202.833 23.008 203.249 22.016 204.081 21.072C204.929 20.112 206.049 19.344 207.441 18.768C208.833 18.192 210.305 17.904 211.857 17.904C212.401 17.904 212.849 17.944 213.201 18.024L210.273 29.112C210.001 30.12 209.865 30.984 209.865 31.704C209.865 33.224 210.489 33.984 211.737 33.984C213.529 33.984 214.769 32.336 215.457 29.04L217.857 17.952H221.241L218.913 29.04C218.401 31.392 217.513 33.168 216.249 34.368C215.001 35.568 213.409 36.168 211.473 36.168ZM230.597 36.408C229.349 36.408 228.725 35.872 228.725 34.8C228.725 34.448 228.773 34.048 228.869 33.6C228.981 33.136 229.133 32.544 229.325 31.824C229.549 31.072 229.717 30.432 229.829 29.904C229.941 29.376 229.997 28.904 229.997 28.488C229.997 27.4 229.517 26.856 228.557 26.856C228.301 26.856 228.037 26.888 227.765 26.952L225.845 36H222.389L225.653 20.736L229.205 20.256L228.029 25.8H228.221C228.845 25.8 229.421 25.584 229.949 25.152C230.477 24.72 230.885 24.184 231.173 23.544C231.477 22.888 231.629 22.248 231.629 21.624C231.629 20.888 231.405 20.288 230.957 19.824C230.525 19.344 229.869 19.104 228.989 19.104C227.693 19.104 226.557 19.336 225.581 19.8C224.605 20.264 223.845 20.936 223.301 21.816C222.773 22.696 222.509 23.736 222.509 24.936C222.509 25.528 222.565 25.944 222.677 26.184C222.789 26.408 222.845 26.536 222.845 26.568C221.981 26.568 221.333 26.392 220.901 26.04C220.485 25.672 220.277 25.072 220.277 24.24C220.277 23.216 220.693 22.224 221.525 21.264C222.373 20.288 223.453 19.504 224.765 18.912C226.077 18.304 227.389 18 228.701 18C229.901 18 230.909 18.176 231.725 18.528C232.541 18.88 233.149 19.352 233.549 19.944C233.949 20.52 234.149 21.152 234.149 21.84C234.149 22.592 233.917 23.344 233.453 24.096C232.989 24.848 232.357 25.464 231.557 25.944C232.165 26.12 232.589 26.416 232.829 26.832C233.085 27.232 233.213 27.736 233.213 28.344C233.213 28.808 233.157 29.304 233.045 29.832C232.933 30.344 232.773 30.984 232.565 31.752C232.437 32.248 232.317 32.736 232.205 33.216C232.093 33.696 232.037 34.096 232.037 34.416C232.037 34.784 232.117 35.112 232.277 35.4C232.453 35.688 232.685 35.888 232.973 36C231.997 36.272 231.205 36.408 230.597 36.408ZM239.131 36.432C237.675 36.432 236.571 36.032 235.819 35.232C235.083 34.432 234.715 33.424 234.715 32.208C234.715 31.344 234.891 30.48 235.243 29.616C235.611 28.736 236.131 27.968 236.803 27.312C237.475 26.656 238.259 26.216 239.155 25.992C238.659 25.64 238.291 25.216 238.051 24.72C237.811 24.208 237.691 23.672 237.691 23.112C237.691 22.28 237.915 21.464 238.363 20.664C238.827 19.864 239.459 19.216 240.259 18.72C241.075 18.208 241.971 17.952 242.947 17.952C243.955 17.952 244.779 18.216 245.419 18.744C246.059 19.272 246.379 20.008 246.379 20.952C246.379 21.656 246.203 22.248 245.851 22.728C245.499 23.208 245.083 23.448 244.603 23.448C244.171 23.448 243.795 23.232 243.475 22.8C243.763 22.704 244.011 22.44 244.219 22.008C244.427 21.576 244.531 21.144 244.531 20.712C244.531 20.248 244.403 19.912 244.147 19.704C243.891 19.48 243.579 19.368 243.211 19.368C242.747 19.368 242.323 19.536 241.939 19.872C241.571 20.192 241.283 20.616 241.075 21.144C240.867 21.656 240.763 22.192 240.763 22.752C240.763 23.52 240.963 24.2 241.363 24.792C241.763 25.368 242.371 25.76 243.187 25.968C242.371 26.144 241.635 26.544 240.979 27.168C240.323 27.792 239.811 28.52 239.443 29.352C239.075 30.168 238.891 30.952 238.891 31.704C238.891 32.424 239.075 33.008 239.443 33.456C239.827 33.904 240.403 34.128 241.171 34.128C241.971 34.128 242.803 33.912 243.667 33.48C244.547 33.032 245.195 32.432 245.611 31.68L246.163 31.92C245.539 33.296 244.579 34.392 243.283 35.208C241.987 36.024 240.603 36.432 239.131 36.432Z" fill="white"/>
<path d="M16.5 22.5H14V39.5H43V22.5H36.5L34.5 18H27.5L25.5 22.5H18.5V19.5H16.5V22.5Z" stroke="white"/>
<circle cx="31" cy="30" r="4.5" stroke="white"/>
<circle cx="31" cy="30" r="2.5" stroke="white"/>
<rect x="19.25" y="27.25" width="0.5" height="5.5" stroke="white" stroke-width="0.5"/>
<circle cx="29" cy="29" r="24.5" stroke="white"/>
<circle cx="29" cy="29" r="28.5" stroke="white"/>
<rect x="26.7071" y="4.53516" width="4" height="4" transform="rotate(-45 26.7071 4.53516)" fill="white" stroke="white"/>
<rect x="26.7071" y="53.5352" width="4" height="4" transform="rotate(-45 26.7071 53.5352)" fill="white" stroke="white"/>
<rect x="50.7071" y="29.5352" width="4" height="4" transform="rotate(-45 50.7071 29.5352)" fill="white" stroke="white"/>
<rect x="1.70711" y="29.5352" width="4" height="4" transform="rotate(-45 1.70711 29.5352)" fill="white" stroke="white"/>
</svg>
