<svg width="176" height="47" viewBox="0 0 176 47" fill="none" xmlns="http://www.w3.org/2000/svg">
<path d="M55.6582 32.2666C53.3646 32.2666 51.5322 31.7419 50.1611 30.6924C48.7985 29.6429 48.0876 28.0983 48.0283 26.0586H51.9004C51.9681 27.0065 52.3405 27.7217 53.0176 28.2041C53.7031 28.6781 54.5664 28.915 55.6074 28.915C56.623 28.915 57.4355 28.6992 58.0449 28.2676C58.6628 27.8359 58.9717 27.2731 58.9717 26.5791C58.9717 25.9443 58.6924 25.4577 58.1338 25.1191C57.5752 24.7721 56.7796 24.4759 55.7471 24.2305L53.6777 23.7227C52.0866 23.3418 50.8298 22.7367 49.9072 21.9072C48.9932 21.0693 48.5361 19.9521 48.5361 18.5557C48.5361 17.4131 48.8451 16.4144 49.4629 15.5596C50.0807 14.6963 50.9271 14.0277 52.002 13.5537C53.0853 13.0713 54.3167 12.8301 55.6963 12.8301C57.1012 12.8301 58.3285 13.0713 59.3779 13.5537C60.4274 14.0361 61.2441 14.7048 61.8281 15.5596C62.4206 16.4144 62.7253 17.4004 62.7422 18.5176H58.8828C58.8151 17.7812 58.502 17.2057 57.9434 16.791C57.3848 16.3763 56.6273 16.1689 55.6709 16.1689C54.6976 16.1689 53.9486 16.3721 53.4238 16.7783C52.8991 17.1761 52.6367 17.6839 52.6367 18.3018C52.6367 18.9704 52.9287 19.4782 53.5127 19.8252C54.0967 20.1637 54.7992 20.4303 55.6201 20.625L57.3086 21.0439C58.4089 21.2894 59.3864 21.6491 60.2412 22.123C61.096 22.5885 61.7689 23.1895 62.2598 23.9258C62.7507 24.6536 62.9961 25.5423 62.9961 26.5918C62.9961 28.3268 62.3486 29.7064 61.0537 30.7305C59.7588 31.7546 57.9603 32.2666 55.6582 32.2666ZM72.0098 32.2793C70.554 32.2793 69.3057 31.9704 68.2646 31.3525C67.2236 30.7347 66.4238 29.8757 65.8652 28.7754C65.3151 27.6751 65.04 26.4056 65.04 24.9668C65.04 23.5111 65.3193 22.2331 65.8779 21.1328C66.445 20.0326 67.249 19.1735 68.29 18.5557C69.3311 17.9378 70.5667 17.6289 71.9971 17.6289C73.2327 17.6289 74.3161 17.8532 75.2471 18.3018C76.1781 18.7503 76.9144 19.3809 77.4561 20.1934C77.9977 21.0059 78.2939 21.9622 78.3447 23.0625H74.6377C74.5277 22.36 74.2526 21.793 73.8125 21.3613C73.3724 20.9212 72.7884 20.7012 72.0605 20.7012C71.1465 20.7012 70.4144 21.0693 69.8643 21.8057C69.3141 22.5335 69.0391 23.5703 69.0391 24.916C69.0391 26.2702 69.3099 27.3239 69.8516 28.0771C70.4017 28.8304 71.138 29.207 72.0605 29.207C72.7376 29.207 73.3089 28.9954 73.7744 28.5723C74.2399 28.1491 74.5277 27.5566 74.6377 26.7949H78.3447C78.2855 27.8783 77.9935 28.8346 77.4688 29.6641C76.944 30.485 76.2161 31.1283 75.2852 31.5938C74.3626 32.0508 73.2708 32.2793 72.0098 32.2793ZM84.9463 32.2666C83.5921 32.2666 82.4665 31.9154 81.5693 31.2129C80.6807 30.502 80.2363 29.444 80.2363 28.0391C80.2363 26.9811 80.4818 26.1517 80.9727 25.5508C81.472 24.9414 82.1279 24.4971 82.9404 24.2178C83.7529 23.93 84.6247 23.7438 85.5557 23.6592C86.7913 23.5407 87.6715 23.418 88.1963 23.291C88.7295 23.1556 88.9961 22.8594 88.9961 22.4023V22.3389C88.9961 21.7549 88.8099 21.3021 88.4375 20.9805C88.0651 20.6589 87.5277 20.498 86.8252 20.498C86.1227 20.498 85.5472 20.6504 85.0986 20.9551C84.6585 21.2598 84.3665 21.6491 84.2227 22.123L80.6426 21.5518C80.9811 20.3161 81.6921 19.3555 82.7754 18.6699C83.8672 17.9759 85.2214 17.6289 86.8379 17.6289C87.8874 17.6289 88.8734 17.7939 89.7959 18.124C90.7269 18.4541 91.4801 18.9746 92.0557 19.6855C92.6312 20.388 92.9189 21.3021 92.9189 22.4277V32H89.1992V30.0195H89.085C88.738 30.6882 88.2217 31.2298 87.5361 31.6445C86.859 32.0592 85.9958 32.2666 84.9463 32.2666ZM83.9814 27.9121C83.9814 28.4538 84.1761 28.8643 84.5654 29.1436C84.9632 29.4144 85.4626 29.5498 86.0635 29.5498C86.9268 29.5498 87.6335 29.3001 88.1836 28.8008C88.7422 28.3014 89.0215 27.6794 89.0215 26.9346V25.4238C88.8691 25.5254 88.6279 25.6185 88.2979 25.7031C87.9762 25.7878 87.6335 25.8597 87.2695 25.9189C86.9056 25.9697 86.5798 26.0163 86.292 26.0586C85.598 26.1602 85.0394 26.359 84.6162 26.6553C84.193 26.943 83.9814 27.362 83.9814 27.9121ZM100.016 23.7988V32H96.0801V17.8066H99.9521V20.333H100.092C100.413 19.5036 100.925 18.8477 101.628 18.3652C102.33 17.8743 103.206 17.6289 104.256 17.6289C105.737 17.6289 106.922 18.1071 107.811 19.0635C108.708 20.0114 109.156 21.3148 109.156 22.9736V32H105.221V23.6719C105.221 22.8001 104.996 22.1188 104.548 21.6279C104.108 21.137 103.494 20.8916 102.707 20.8916C101.911 20.8916 101.264 21.1497 100.765 21.666C100.265 22.1738 100.016 22.8848 100.016 23.7988ZM112.381 13.084H117.307L122.512 25.792H122.728L127.945 13.084H132.909V32H128.986V19.6855H128.847L123.934 31.9111H121.28L116.418 19.6602H116.253V32H112.381V13.084ZM140.171 32.2666C138.817 32.2666 137.691 31.9154 136.794 31.2129C135.905 30.502 135.461 29.444 135.461 28.0391C135.461 26.9811 135.706 26.1517 136.197 25.5508C136.697 24.9414 137.353 24.4971 138.165 24.2178C138.978 23.93 139.849 23.7438 140.78 23.6592C142.016 23.5407 142.896 23.418 143.421 23.291C143.954 23.1556 144.221 22.8594 144.221 22.4023V22.3389C144.221 21.7549 144.035 21.3021 143.662 20.9805C143.29 20.6589 142.752 20.498 142.05 20.498C141.347 20.498 140.772 20.6504 140.323 20.9551C139.883 21.2598 139.591 21.6491 139.447 22.123L135.867 21.5518C136.206 20.3161 136.917 19.3555 138 18.6699C139.092 17.9759 140.446 17.6289 142.062 17.6289C143.112 17.6289 144.098 17.7939 145.021 18.124C145.951 18.4541 146.705 18.9746 147.28 19.6855C147.856 20.388 148.144 21.3021 148.144 22.4277V32H144.424V30.0195H144.31C143.963 30.6882 143.446 31.2298 142.761 31.6445C142.084 32.0592 141.22 32.2666 140.171 32.2666ZM139.206 27.9121C139.206 28.4538 139.401 28.8643 139.79 29.1436C140.188 29.4144 140.687 29.5498 141.288 29.5498C142.151 29.5498 142.858 29.3001 143.408 28.8008C143.967 28.3014 144.246 27.6794 144.246 26.9346V25.4238C144.094 25.5254 143.853 25.6185 143.522 25.7031C143.201 25.7878 142.858 25.8597 142.494 25.9189C142.13 25.9697 141.804 26.0163 141.517 26.0586C140.823 26.1602 140.264 26.359 139.841 26.6553C139.418 26.943 139.206 27.362 139.206 27.9121ZM158.846 17.8066V20.7773H156.154V27.6328C156.154 28.5553 156.603 29.0166 157.5 29.0166C157.652 29.0166 157.817 29.0039 157.995 28.9785C158.181 28.9531 158.342 28.9235 158.478 28.8896L159.1 31.835C158.262 32.0804 157.449 32.2031 156.662 32.2031C155.257 32.2031 154.165 31.8477 153.387 31.1367C152.617 30.4258 152.231 29.4313 152.231 28.1533V20.7773H150.302V17.8066H152.231V14.4297H156.154V17.8066H158.846ZM167.872 32.2793C166.416 32.2793 165.164 31.9831 164.114 31.3906C163.065 30.7982 162.257 29.9561 161.689 28.8643C161.122 27.764 160.839 26.4648 160.839 24.9668C160.839 23.5111 161.118 22.2331 161.677 21.1328C162.244 20.0326 163.039 19.1735 164.063 18.5557C165.088 17.9378 166.294 17.6289 167.682 17.6289C168.934 17.6289 170.064 17.8955 171.071 18.4287C172.087 18.9619 172.891 19.7617 173.483 20.8281C174.084 21.8945 174.385 23.2318 174.385 24.8398V25.9062H164.711C164.753 26.9811 165.066 27.8232 165.65 28.4326C166.234 29.042 166.996 29.3467 167.936 29.3467C168.587 29.3467 169.146 29.207 169.611 28.9277C170.085 28.6484 170.424 28.2422 170.627 27.709L174.258 27.9502C173.979 29.2536 173.28 30.3031 172.163 31.0986C171.054 31.8857 169.624 32.2793 167.872 32.2793ZM164.736 23.4814H170.614C170.521 22.5843 170.233 21.8734 169.751 21.3486C169.269 20.8239 168.591 20.5615 167.72 20.5615C166.84 20.5615 166.141 20.8366 165.625 21.3867C165.117 21.9284 164.821 22.6266 164.736 23.4814Z" fill="#3A3636"/>
<path d="M10.6767 15.7915L0 5V43H38L27.3233 32.3233H10.6767V15.7915Z" fill="#3A3636"/>
<path d="M28.3233 30.2085L39 41L39 3L1 3L11.6767 13.6767L28.3233 13.6767L28.3233 30.2085Z" fill="#3A3636"/>
</svg>
